<svg xmlns="http://www.w3.org/2000/svg" xmlns:xlink="http://www.w3.org/1999/xlink" width="512" height="512" version="1.1" viewBox="0 0 512 512" style="background:#fff"><title>iconsafari-pinned-tab</title><desc>Created with Sketch.</desc><g id="Page-1" fill="none" fill-rule="evenodd" stroke="none" stroke-width="1"><g id="icon"><g id="yatsı" fill="#FFD8BA" transform="translate(0.000000, 140.000000)"><rect id="Rectangle-3" width="512" height="202" x="0" y="0"/></g><g id="akşam" transform="translate(0.000000, 60.000000)"><rect id="bg" width="512" height="80" x="0" y="0" fill="#FFD8BA"/><rect id="bg-dark" width="512" height="80" x="0" y="0" fill="#000" fill-opacity=".3" style="mix-blend-mode:overlay"/></g><g id="akşam-copy-2" transform="translate(0.000000, 342.000000)"><rect id="bg" width="512" height="80" x="0" y="0" fill="#FFD8BA"/><rect id="bg-dark" width="512" height="80" x="0" y="0" fill="#000" fill-opacity=".3" style="mix-blend-mode:overlay"/></g><g id="akşam-copy"><rect id="bg" width="512" height="60" x="0" y="0" fill="#FFD8BA"/><rect id="bg-dark" width="512" height="60" x="0" y="0" fill="#000" fill-opacity=".6" style="mix-blend-mode:overlay"/></g><g id="akşam-copy-3" transform="translate(0.000000, 422.000000)"><rect id="bg" width="512" height="60" x="0" y="0" fill="#FFD8BA"/><rect id="bg-dark" width="512" height="60" x="0" y="0" fill="#000" fill-opacity=".6" style="mix-blend-mode:overlay"/></g><g id="akşam-copy-4" transform="translate(0.000000, 482.000000)"><rect id="bg" width="512" height="30" x="0" y="0" fill="#FFD8BA"/><rect id="bg-dark" width="512" height="30" x="0" y="0" fill="#000" fill-opacity=".8" style="mix-blend-mode:overlay"/></g><path id="Shape" fill="#FFF" fill-rule="nonzero" d="M121.848889,264.296889 L256.003556,398.455111 L390.225778,264.225778 L390.222222,264.225778 C406.147556,248.300444 416,226.302222 416,202.003556 C416,153.399111 376.597333,114 327.992889,114 C298.222222,114 271.921778,128.801778 256,151.429333 C240.074667,128.798222 213.774222,114 184.003556,114 C135.395556,114 96,153.399111 96,202.003556 C96,226.337778 105.880889,248.368 121.848889,264.296889 Z"/></g></g></svg>